<svg width="20" height="20" viewBox="0 0 20 20" fill="none" xmlns="http://www.w3.org/2000/svg">
<path d="M1.66667 10.5084H15.8333" stroke="white" stroke-width="1.5" stroke-miterlimit="10" stroke-linecap="round" stroke-linejoin="round"/>
<path d="M15.8333 8.56665V14.525C15.8083 16.9 15.1583 17.5 12.6833 17.5H4.8167C2.30003 17.5 1.66667 16.875 1.66667 14.3916V8.56665C1.66667 6.31665 2.19167 5.59165 4.16667 5.47498C4.36667 5.46665 4.58336 5.45831 4.8167 5.45831H12.6833C15.2 5.45831 15.8333 6.08331 15.8333 8.56665Z" stroke="white" stroke-width="1.5" stroke-linecap="round" stroke-linejoin="round"/>
<path d="M18.3333 5.60833V11.4333C18.3333 13.6833 17.8083 14.4083 15.8333 14.525V8.56667C15.8333 6.08333 15.2 5.45833 12.6833 5.45833H4.8167C4.58336 5.45833 4.36667 5.46667 4.16667 5.475C4.19167 3.1 4.8417 2.5 7.3167 2.5H15.1833C17.7 2.5 18.3333 3.125 18.3333 5.60833Z" stroke="white" stroke-width="1.5" stroke-linecap="round" stroke-linejoin="round"/>
<path d="M4.375 14.8417H5.80831" stroke="white" stroke-width="1.5" stroke-miterlimit="10" stroke-linecap="round" stroke-linejoin="round"/>
<path d="M7.59166 14.8417H10.4583" stroke="white" stroke-width="1.5" stroke-miterlimit="10" stroke-linecap="round" stroke-linejoin="round"/>
</svg>
